<?xml version="1.0" encoding="UTF-8"?>
<svg version="1.1" xmlns="http://www.w3.org/2000/svg" width="192" height="192">
<path d="M0 0 C63.36 0 126.72 0 192 0 C192 63.36 192 126.72 192 192 C128.64 192 65.28 192 0 192 C0 128.64 0 65.28 0 0 Z " fill="#113228" transform="translate(0,0)"/>
<path d="M0 0 C7.26 0 14.52 0 22 0 C22 31.68 22 63.36 22 96 C12.17517984 97.40354574 3.55732033 98.36425006 -6.1875 98.375 C-7.36763672 98.39949219 -8.54777344 98.42398438 -9.76367188 98.44921875 C-21.01887385 98.48659075 -30.67363781 95.85282501 -39 88 C-45.65473976 80.08625543 -46.57973389 70.64079369 -46.34765625 60.62109375 C-45.55451302 52.35992776 -41.90186256 44.86411077 -36 39 C-27.47790815 32.66125399 -19.52756958 30.6697135 -9.0625 30.875 C-6.071875 30.91625 -3.08125 30.9575 0 31 C0 20.77 0 10.54 0 0 Z " fill="#FAFBFB" transform="translate(84,39)"/>
<path d="M0 0 C6.93 0 13.86 0 21 0 C21.11359941 8.64159445 21.20505633 17.2825947 21.25906086 25.92473888 C21.28499882 29.93896222 21.32010112 33.95264207 21.37719727 37.96655273 C21.43209001 41.85049481 21.46153887 45.7339189 21.47438622 49.61821938 C21.48352477 51.08962456 21.50136602 52.56100593 21.52865028 54.03218651 C21.73563279 65.67067658 20.15662636 76.15129665 12.6875 85.5 C9.34591487 88.9214926 5.58263515 92.43248181 1 94 C-4.24854321 93.69879236 -8.6628192 91.58908346 -13.375 89.4375 C-14.11105469 89.10814453 -14.84710938 88.77878906 -15.60546875 88.43945312 C-17.40644557 87.63252195 -19.20362181 86.8171174 -21 86 C-19.68068596 83.36137192 -18.20135456 82.8340676 -15.625 81.4375 C-14.43777344 80.78587891 -14.43777344 80.78587891 -13.2265625 80.12109375 C-11 79 -11 79 -8 78 C-6.87107107 76.19134065 -6.87107107 76.19134065 -6 74 C-5.65839844 73.2678125 -5.31679687 72.535625 -4.96484375 71.78125 C-4.62582031 71.0284375 -4.28679687 70.275625 -3.9375 69.5 C-3.59589844 68.7471875 -3.25429687 67.994375 -2.90234375 67.21875 C-1.21356488 63.06625476 -0.85952091 59.42973126 -0.79467773 54.94628906 C-0.77473251 53.72532532 -0.75478729 52.50436157 -0.73423767 51.24639893 C-0.71752518 49.93274353 -0.70081268 48.61908813 -0.68359375 47.265625 C-0.66301081 45.90370064 -0.64201399 44.54178248 -0.62062073 43.17987061 C-0.56553835 39.60265128 -0.51606836 36.02537562 -0.46777344 32.44805908 C-0.41745711 28.79474906 -0.36182403 25.14152042 -0.30664062 21.48828125 C-0.19922835 14.32558794 -0.09823774 7.16282609 0 0 Z " fill="#FCFDFD" transform="translate(118,71)"/>
<path d="M0 0 C0.9796875 -0.00257812 1.959375 -0.00515625 2.96875 -0.0078125 C5.5 0.125 5.5 0.125 7.5 1.125 C7.5 12.345 7.5 23.565 7.5 35.125 C-8.28609626 35.125 -8.28609626 35.125 -13.5 30.125 C-17.27793918 25.40257602 -16.99729494 20.01407972 -16.8515625 14.19140625 C-16.23286743 8.79501038 -13.81392926 6.28250911 -9.875 2.8125 C-6.28682983 0.26301067 -4.37645723 -0.01151699 0 0 Z " fill="#15352C" transform="translate(76.5,85.875)"/>
<path d="M0 0 C6.93 0 13.86 0 21 0 C21 6.93 21 13.86 21 21 C14.07 21 7.14 21 0 21 C0 14.07 0 7.14 0 0 Z " fill="#FCFDFD" transform="translate(118,39)"/>
</svg>
